# xmcd CD database file
#
# Track frame offsets:
#	150
#	53172
#	74525
#	80290
#	94850
#	110085
#	135267
#	156515
#	160382
#	167720
#	186392
#	226865
#
# Disc length: 3630 seconds
#
# Revision: 7
# Processed by: cddbd v1.5.2PL0 Copyright (c) Steve Scherf et al.
# Submitted via: CDex 1.77
#
DISCID=a00e2c0c
DTITLE=Rafael Kubelik - Mendelssohn: "A Midsummer Night's Dream" Op. 21 and Op. 61
DYEAR=1964
DGENRE=Classical
TTITLE0=Overture - Allegro di molto
TTITLE1=Scherzo: Allegro vivace
TTITLE2=Fairies' March: Allegro vivace
TTITLE3=Song With Chorus: Allegro ma non troppo - "You spotted snakes"
TTITLE4=Intermezzo: Allegro appasionato
TTITLE5=Notturno: Con moto tranquillo
TTITLE6=Wedding March: Allegro vivace
TTITLE7=Funeral March: Andante comodo
TTITLE8=Dance of the Clowns: Allegro di molto
TTITLE9=Finale: Allegro di molto - "Through the House Give Glimmering Light"
TTITLE10=Weber - Overture to "Oberon"
TTITLE11=Weber - Overture to "Der Freischutz"
EXTD=Incidental Music To Shakespeare's Play Op.21 and Op.61\nTracks 11 and 12 by Carl Maria Von Weber YEAR: 1964
EXTT0=
EXTT1=
EXTT2=
EXTT3=
EXTT4=
EXTT5=
EXTT6=
EXTT7=
EXTT8=
EXTT9=
EXTT10=
EXTT11=
PLAYORDER=
